<svg xmlns="http://www.w3.org/2000/svg" width="256" height="256" viewBox="0 0 32 32"><path fill="#ffffff" fill-rule="evenodd" d="M29 16a12.987 12.987 0 0 0-.646-4.039a9.42 9.42 0 0 0-2.834-.671l.02.05a20.742 20.742 0 0 1 2.028 10.598A12.943 12.943 0 0 0 29 16m-3.168 8.505A19.394 19.394 0 0 0 24.3 11.95l-.31-.64c-1.26.1-2.5.47-3.62 1.06l.6 1.19a15.766 15.766 0 0 1-.457 14.635a13.023 13.023 0 0 0 5.319-3.69m-7.283 4.245a14.393 14.393 0 0 0 1.191-14.58l-.53-1.07c-1.02.74-1.9 1.71-2.57 2.87c1.16 2.53 1.29 5.36.38 8c-.28.82-.65 1.58-1.1 2.29c-.04.11-.1.21-.18.28a10.628 10.628 0 0 1-2.074 2.251a13.077 13.077 0 0 0 4.883-.04m-6.602-.394a9.364 9.364 0 0 0 1.983-1.716a20.718 20.718 0 0 1-8.012-2.433a13.02 13.02 0 0 0 6.029 4.149M4.23 21.528a19.493 19.493 0 0 0 10.65 3.802a9.284 9.284 0 0 0 1.29-3.68h-.35c-5.12 0-9.86-2.505-12.786-6.573a12.95 12.95 0 0 0 1.197 6.45M16 1C7.716 1 1 7.716 1 16c0 8.284 6.716 15 15 15c8.284 0 15-6.716 15-15c0-8.284-6.716-15-15-15m-.55 14.34c2.488-4.336 7.58-6.313 12.235-5.025a13.043 13.043 0 0 0-3.006-3.974A14.382 14.382 0 0 0 12.17 13.87l-.33.59c1.1.52 2.32.83 3.61.88m-4.48-2.14c2.465-4.568 7-7.55 12.042-8.129a12.927 12.927 0 0 0-6.343-2.034a19.4 19.4 0 0 0-8.74 8.003a9.437 9.437 0 0 0 2.711 2.74zM5.365 8.541a12.937 12.937 0 0 0-2.023 4.503A14.42 14.42 0 0 0 15.82 20.28h.43a9.547 9.547 0 0 0-.79-3.59c-1.74-.05-3.39-.53-4.83-1.32a.355.355 0 0 1-.09-.04a.304.304 0 0 1-.07-.05a10.825 10.825 0 0 1-5.105-6.739m8.065-5.267a12.981 12.981 0 0 0-6.946 3.889c.118.865.353 1.694.686 2.467a20.773 20.773 0 0 1 6.26-6.356" clip-rule="evenodd"/></svg>